<svg width="20" height="20" viewBox="0 0 20 20" fill="none" xmlns="http://www.w3.org/2000/svg">
<g clip-path="url(#clip0_1616_503)">
<path d="M10 0C4.475 0 0 4.54507 0 10.1566C0 14.9132 3.225 18.8997 7.575 20C7.525 19.8646 7.5 19.7038 7.5 19.5091V17.774H6.24167C5.55834 17.774 4.95 17.4778 4.65834 16.9192C4.33334 16.3013 4.275 15.3618 3.46667 14.7778C3.225 14.5832 3.40833 14.3631 3.68333 14.397C4.2 14.5408 4.625 14.9048 5.025 15.4295C5.425 15.9628 5.60834 16.0813 6.35834 16.0813C6.71667 16.0813 7.25834 16.0643 7.76667 15.9797C8.04167 15.2772 8.50834 14.6255 9.09167 14.3208C5.75834 13.9738 4.175 12.2895 4.175 10.0042C4.175 9.02243 4.58333 8.06602 5.29167 7.27042C5.05834 6.47482 4.775 4.84977 5.38334 4.23191C6.88334 4.23191 7.79167 5.22218 8.00834 5.48455C8.75834 5.22218 9.575 5.07829 10.4333 5.07829C11.2917 5.07829 12.1167 5.22218 12.8667 5.48455C13.0833 5.22218 13.9917 4.23191 15.4917 4.23191C16.1 4.84977 15.8083 6.48328 15.575 7.27042C16.275 8.06602 16.6833 9.02243 16.6833 10.0042C16.6833 12.2895 15.1 13.9653 11.775 14.3208C12.6917 14.8032 13.3583 16.1659 13.3583 17.1985V19.5091C13.3583 19.5937 13.3417 19.6614 13.3333 19.7376C17.2333 18.3496 20.025 14.5916 20.025 10.165C20 4.54507 15.525 0 10 0Z" fill="white"/>
</g>
<defs>
<clipPath id="clip0_1616_503">
<rect width="20" height="20" fill="white"/>
</clipPath>
</defs>
</svg>
