<svg width="108" height="24" viewBox="0 0 108 24" fill="none" xmlns="http://www.w3.org/2000/svg">
<path fill-rule="evenodd" clip-rule="evenodd" d="M2.52165e-06 1.58276L16.9654 1.58277L8.51652 10.1297C5.67768 10.0624 1.35437e-06 8.25881 2.52165e-06 1.58276ZM16.9654 18.835L-3.01647e-06 18.835L8.44893 10.1297C11.2878 10.1983 16.9654 12.0353 16.9654 18.835Z" fill="white"/>
<path d="M23.0753 4.02884H28.7431V18.8095H31.7131V4.02884H37.4057V1.48301H23.0505L23.0753 4.02884Z" fill="white"/>
<path d="M35.4456 6.42636L39.4056 18.7848H42.5736L45.3457 10.2575L48.0929 18.7848H51.261L55.2458 6.42636H52.1272L49.6027 15.1267L46.9049 6.42636H43.7864L41.0886 15.1267L38.5641 6.42636H35.4456Z" fill="white"/>
<path d="M58.075 4.32544C59.0898 4.32544 59.9065 3.48507 59.9065 2.47168C59.9065 1.45829 59.0898 0.642637 58.075 0.642637C57.0603 0.642637 56.2435 1.45829 56.2435 2.47168C56.2435 3.48507 57.0603 4.32544 58.075 4.32544ZM56.5653 6.42636V18.8095H59.5353V6.42636H56.5653Z" fill="white"/>
<path d="M62.4079 0V18.8095H65.3779V0H62.4079Z" fill="white"/>
<path d="M69.6786 4.32544C70.6934 4.32544 71.5101 3.48507 71.5101 2.47168C71.5101 1.45829 70.6934 0.642637 69.6786 0.642637C68.6639 0.642637 67.8471 1.45829 67.8471 2.47168C67.8471 3.48507 68.6639 4.32544 69.6786 4.32544ZM68.1689 6.42636V18.8095H71.1389V6.42636H68.1689Z" fill="white"/>
<path d="M73.368 12.309C73.368 15.9918 75.7935 18.4387 78.8625 18.4387C80.694 18.4387 82.1295 17.5242 82.8968 16.0906V18.0185C82.8968 20.5396 81.2633 21.4789 79.4813 21.4789C78.0705 21.4789 76.7835 20.8115 76.2637 19.2049L73.4422 19.9217C74.1847 22.3687 76.2637 24 79.4813 24C83.2928 24 85.8668 21.6025 85.8668 18.0185V6.42636H82.8968V8.55201C82.1295 7.11843 80.694 6.20391 78.8625 6.20391C75.7935 6.20391 73.368 8.62616 73.368 12.309ZM76.3627 12.309C76.3627 10.1092 77.7735 8.74974 79.5308 8.74974C81.2633 8.74974 82.6741 10.1092 82.6741 12.309C82.6741 14.5335 81.2633 15.8682 79.5308 15.8682C77.7735 15.8682 76.3627 14.5088 76.3627 12.309Z" fill="white"/>
<path d="M88.1278 18.8095V1.48301H91.0978V8.20597C91.7413 7.01957 92.9294 6.1792 94.6866 6.1792C97.7309 6.1792 99.2902 8.28012 99.2902 11.345V18.8095H96.3201V11.7899C96.3201 9.93615 95.4786 8.77446 93.7956 8.77446C92.1126 8.77446 91.0978 9.93615 91.0978 11.7899V18.8095H88.1278Z" fill="white"/>
<path d="M100.188 8.82389H102.069V15.1514C102.069 17.6231 103.48 19.0566 105.856 19.0566C106.524 19.0566 107.118 18.9331 107.563 18.7848V16.585C107.341 16.6344 107.118 16.6591 106.846 16.6591C105.757 16.6591 105.064 16.1648 105.064 14.7806V8.82389H107.613V6.45108H105.064V3.21318H102.069V6.45108H100.188V8.82389Z" fill="white"/>
</svg>