<svg width="634" height="281" viewBox="0 0 634 281" fill="none" xmlns="http://www.w3.org/2000/svg">
<g opacity="0.72">
<rect x="634" y="281" width="634" height="37.0002" transform="rotate(180 634 281)" fill="url(#paint0_linear_14_1376)"/>
<rect x="634" y="244" width="634" height="34.0002" transform="rotate(180 634 244)" fill="url(#paint1_linear_14_1376)"/>
<rect x="634" y="210" width="634" height="35.0002" transform="rotate(180 634 210)" fill="url(#paint2_linear_14_1376)"/>
<rect x="634" y="175" width="634" height="35.0002" transform="rotate(180 634 175)" fill="url(#paint3_linear_14_1376)"/>
<rect width="634" height="34.0003" transform="matrix(-1 -4.72759e-07 -5.04437e-07 1 634 106)" fill="url(#paint4_linear_14_1376)"/>
<rect width="634" height="35.0003" transform="matrix(-1 -4.75386e-07 -5.03936e-07 1 634 71.0002)" fill="url(#paint5_linear_14_1376)"/>
<rect width="634" height="35.0003" transform="matrix(-1 -4.75386e-07 -5.03936e-07 1 634 36.0002)" fill="url(#paint6_linear_14_1376)"/>
<rect width="634" height="36.0003" transform="matrix(-1 -4.75386e-07 -5.03936e-07 1 634 0.000244141)" fill="url(#paint7_linear_14_1376)"/>
</g>
<defs>
<linearGradient id="paint0_linear_14_1376" x1="512.561" y1="314.909" x2="1237.53" y2="221.436" gradientUnits="userSpaceOnUse">
<stop stop-color="#FA4340"/>
<stop offset="0.333333" stop-color="#F89338"/>
<stop offset="0.666667" stop-color="#FFBDBD"/>
<stop offset="1" stop-color="#0E0E10"/>
</linearGradient>
<linearGradient id="paint1_linear_14_1376" x1="556.382" y1="275.16" x2="1266.83" y2="175.477" gradientUnits="userSpaceOnUse">
<stop stop-color="#FA4340"/>
<stop offset="0.333333" stop-color="#F89338"/>
<stop offset="0.666667" stop-color="#FFBDBD"/>
<stop offset="1" stop-color="#0E0E10"/>
</linearGradient>
<linearGradient id="paint2_linear_14_1376" x1="584.585" y1="242.077" x2="1292.15" y2="145.635" gradientUnits="userSpaceOnUse">
<stop stop-color="#FA4340"/>
<stop offset="0.333333" stop-color="#F89439"/>
<stop offset="0.666667" stop-color="#FFBDBD"/>
<stop offset="0.963542" stop-color="#050505"/>
</linearGradient>
<linearGradient id="paint3_linear_14_1376" x1="638.986" y1="207.077" x2="1300.46" y2="116.917" gradientUnits="userSpaceOnUse">
<stop stop-color="#FA4340"/>
<stop offset="0.270833" stop-color="#F99236"/>
<stop offset="0.625" stop-color="#FFBDBD"/>
<stop offset="1" stop-color="#0E0E10"/>
</linearGradient>
<linearGradient id="paint4_linear_14_1376" x1="4.98558" y1="31.16" x2="665.745" y2="-61.5506" gradientUnits="userSpaceOnUse">
<stop stop-color="#FA4340"/>
<stop offset="0.270833" stop-color="#F99236"/>
<stop offset="0.625" stop-color="#FFBDBD"/>
<stop offset="1" stop-color="#0E0E10"/>
</linearGradient>
<linearGradient id="paint5_linear_14_1376" x1="-49.4147" y1="32.0764" x2="658.149" y2="-64.3648" gradientUnits="userSpaceOnUse">
<stop stop-color="#FA4340"/>
<stop offset="0.333333" stop-color="#F89439"/>
<stop offset="0.666667" stop-color="#FFBDBD"/>
<stop offset="0.963542" stop-color="#050505"/>
</linearGradient>
<linearGradient id="paint6_linear_14_1376" x1="-77.6184" y1="32.0764" x2="633.607" y2="-64.8638" gradientUnits="userSpaceOnUse">
<stop stop-color="#FA4340"/>
<stop offset="0.333333" stop-color="#F89338"/>
<stop offset="0.666667" stop-color="#FFBDBD"/>
<stop offset="1" stop-color="#0E0E10"/>
</linearGradient>
<linearGradient id="paint7_linear_14_1376" x1="-121.439" y1="32.9929" x2="602.867" y2="-62.988" gradientUnits="userSpaceOnUse">
<stop stop-color="#FA4340"/>
<stop offset="0.333333" stop-color="#F89338"/>
<stop offset="0.666667" stop-color="#FFBDBD"/>
<stop offset="1" stop-color="#0E0E10"/>
</linearGradient>
</defs>
</svg>
