<svg width="26" height="20" viewBox="0 0 26 20" fill="none" xmlns="http://www.w3.org/2000/svg">
<g clip-path="url(#clip0_1616_501)">
<path d="M25.2633 2.3668C24.3308 2.76945 23.3328 3.03953 22.2844 3.16229C23.353 2.53867 24.1796 1.54677 24.5627 0.368276C23.5647 0.947701 22.4507 1.36508 21.2712 1.59096C20.3236 0.608885 18.9778 -0.00491333 17.4908 -0.00491333C14.6278 -0.00491333 12.3041 2.25386 12.3041 5.04296C12.3041 5.43579 12.3495 5.82371 12.4402 6.19199C8.13054 5.98085 4.31486 3.9725 1.75426 0.913329C1.30566 1.65971 1.05363 2.52885 1.05363 3.452C1.05363 5.20501 1.96597 6.74687 3.35715 7.65529C2.5053 7.63074 1.7089 7.39995 1.00826 7.02185V7.08568C1.00826 9.53106 2.79765 11.5738 5.16671 12.0403C4.73322 12.1532 4.27453 12.217 3.80072 12.217C3.46805 12.217 3.14041 12.1876 2.82286 12.1237C3.48317 14.1272 5.39857 15.5905 7.66681 15.6298C5.89254 16.985 3.65959 17.7903 1.23005 17.7903C0.811684 17.7903 0.39836 17.7658 -0.00488281 17.7216C2.28856 19.1554 5.01045 19.9902 7.939 19.9902C17.4706 19.9902 22.6876 12.2956 22.6876 5.6273C22.6876 5.40633 22.6826 5.19027 22.6725 4.97422C23.6856 4.26221 24.5627 3.37343 25.2583 2.36189L25.2633 2.3668Z" fill="white"/>
</g>
<defs>
<clipPath id="clip0_1616_501">
<rect width="25.2632" height="20" fill="white"/>
</clipPath>
</defs>
</svg>
